# xmcd
#
# Track frame offsets:
#	150
#	10912
#	21362
#	34487
#	43437
#	58200
#	72575
#	84375
#	96062
#	109000
#	123087
#	135440
#	147217
#	158537
#	173287
#	189450
#	197260
#	210820
#	220600
#	233875
#	250450
#	260037
#	271132
#	282425
#
# Disc length: 3916 seconds
# Revision: 4
# Processed by: cddbd v1.5.2PL0 Copyright (c) Steve Scherf et al.
# Submitted via: dBpowerAMP V12.0
#
DISCID=520f4a18
DTITLE=Various Artist - Fun Country
DYEAR=1992
DGENRE=Country
TTITLE0=Doug Kershaw - Diggy Diggy Lo
TTITLE1=Jerry Reed - When You're Hot  You're Hot
TTITLE2=Tom T Hall - I Like Beer
TTITLE3=Roger Miller - Chug A Lug
TTITLE4=Ray Stevens - The Streak
TTITLE5=Charlie Pride - Kaw Liga
TTITLE6=Johnny Paycheck - Take This Job and Shove It
TTITLE7=Joe Stampley - Roll On Big Mama
TTITLE8=Moe Bandy - Where's The Dress
TTITLE9=Loudon Wainwright III - Dead Skunk
TTITLE10=George Jones - White Lightning
TTITLE11=Johnny Lee - Hey Bartender
TTITLE12=Charlie Ryan - Hot Rod Lincoln
TTITLE13=Jerry Reed - She Got The Goldmine I Got The Shaft
TTITLE14=Charlie Daniels - The Devil Went To Georgia
TTITLE15=Roger Miller - Dang Me
TTITLE16=Tom T Hall - The Monkey That Became President
TTITLE17=Dave Dudley - Truck Drivin Son Of A Gun
TTITLE18=Moe Bandy - Bandy The Clown
TTITLE19=Johnny Cash - A Boy Named Sue
TTITLE20=Simon Crum - Cuz You're So Sweet
TTITLE21=Little Jimmie Dickens - May The Bird Of Paradise Fly Up Your Nose
TTITLE22=Hank Thompson - Squaws Along The Yukon
TTITLE23=Johnny Horton - Battle Of New Orleans
EXTD=
EXTT0=
EXTT1=
EXTT2=
EXTT3=
EXTT4=
EXTT5=
EXTT6=
EXTT7=
EXTT8=
EXTT9=
EXTT10=
EXTT11=
EXTT12=
EXTT13=
EXTT14=
EXTT15=
EXTT16=
EXTT17=
EXTT18=
EXTT19=
EXTT20=
EXTT21=
EXTT22=
EXTT23=
PLAYORDER=
